<?xml version="1.0" encoding="UTF-8"?>
<svg width="20px" height="18px" viewBox="0 0 20 18" version="1.1" xmlns="http://www.w3.org/2000/svg" xmlns:xlink="http://www.w3.org/1999/xlink">
    <!-- Generator: Sketch 63.1 (92452) - https://sketch.com -->
    <title>Icontria</title>
    <desc>Created with Sketch.</desc>
    <g id="Page-1" stroke="none" stroke-width="1" fill="none" fill-rule="evenodd">
        <g id="home" transform="translate(-327.000000, -842.000000)" fill="#BEBEBE">
            <g id="menu-bar-home" transform="translate(0.000000, 782.000000)">
                <g id="riwayat" transform="translate(318.000000, 60.000000)">
                    <path d="M28,16 C28.5522847,16 29,16.4477153 29,17 C29,17.5522847 28.5522847,18 28,18 L10,18 C9.44771525,18 9,17.5522847 9,17 C9,16.4477153 9.44771525,16 10,16 L28,16 Z M28,12 C28.5522847,12 29,12.4477153 29,13 C29,13.5522847 28.5522847,14 28,14 L10,14 C9.44771525,14 9,13.5522847 9,13 C9,12.4477153 9.44771525,12 10,12 L28,12 Z M28,8 C28.5522847,8 29,8.44771525 29,9 C29,9.55228475 28.5522847,10 28,10 L10,10 C9.44771525,10 9,9.55228475 9,9 C9,8.44771525 9.44771525,8 10,8 L28,8 Z M28,4 C28.5522847,4 29,4.44771525 29,5 C29,5.55228475 28.5522847,6 28,6 L10,6 C9.44771525,6 9,5.55228475 9,5 C9,4.44771525 9.44771525,4 10,4 L28,4 Z M28,0 C28.5522847,0 29,0.44771525 29,1 C29,1.55228475 28.5522847,2 28,2 L10,2 C9.44771525,2 9,1.55228475 9,1 C9,0.44771525 9.44771525,0 10,0 L28,0 Z" id="Icon"></path>
                </g>
            </g>
        </g>
    </g>
</svg>