<?xml version="1.0" encoding="UTF-8"?>
<svg width="20px" height="20px" viewBox="0 0 20 20" version="1.1" xmlns="http://www.w3.org/2000/svg" xmlns:xlink="http://www.w3.org/1999/xlink">
    <!-- Generator: Sketch 63.1 (92452) - https://sketch.com -->
    <title>Icontriage</title>
    <desc>Created with Sketch.</desc>
    <g id="Page-1" stroke="none" stroke-width="1" fill="none" fill-rule="evenodd">
        <g id="home" transform="translate(-83.000000, -839.000000)" fill="#4B2766">
            <g id="menu-bar-home" transform="translate(0.000000, 782.000000)">
                <g id="beranda" transform="translate(77.000000, 57.000000)">
                    <path d="M11.0020048,20 C9.34515051,20 8.00200475,18.6568542 8.00200475,17 L8.00200475,11 L7.00200475,11 C6.1110999,11 5.66493311,9.92285808 6.29489797,9.29289322 L15.294898,0.292893219 C15.6854223,-0.0976310729 16.3185872,-0.0976310729 16.7091115,0.292893219 L25.7091115,9.29289322 C26.3390764,9.92285808 25.8929096,11 25.0020048,11 L24.0020048,11 L24.0020048,17 C24.0020048,18.6568542 22.658859,20 21.0020048,20 L11.0020048,20 Z M16.0020048,2.41421356 L9.35291638,9.06330193 C9.7321042,9.20542045 10.0020048,9.5711909 10.0020048,10 L10.0020048,17 C10.0020048,17.5522847 10.44972,18 11.0020048,18 L13.002,17.999 L13.0020048,14 C13.0020048,12.8954305 13.8974353,12 15.0020048,12 L17.0020048,12 C18.1065743,12 19.0020048,12.8954305 19.0020048,14 L19.002,17.999 L21.0020048,18 C21.5542895,18 22.0020048,17.5522847 22.0020048,17 L22.0020048,10 C22.0020048,9.5711909 22.2719053,9.20542045 22.6510931,9.06330193 L16.0020048,2.41421356 Z M17.002,14 L15.002,14 L15.002,17.999 L17.002,17.999 L17.002,14 Z" id="Icon"></path>
                </g>
            </g>
        </g>
    </g>
</svg>